<?xml version="1.0" standalone="no"?><!DOCTYPE svg PUBLIC "-//W3C//DTD SVG 1.1//EN" "http://www.w3.org/Graphics/SVG/1.1/DTD/svg11.dtd"><svg t="1660882010892" class="icon" viewBox="0 0 1024 1024" version="1.1" xmlns="http://www.w3.org/2000/svg" p-id="6852" xmlns:xlink="http://www.w3.org/1999/xlink" width="200" height="200"><defs><style type="text/css">@font-face { font-family: feedback-iconfont; src: url("//at.alicdn.com/t/font_1031158_u69w8yhxdu.woff2?t=1630033759944") format("woff2"), url("//at.alicdn.com/t/font_1031158_u69w8yhxdu.woff?t=1630033759944") format("woff"), url("//at.alicdn.com/t/font_1031158_u69w8yhxdu.ttf?t=1630033759944") format("truetype"); }
</style></defs><path d="M868.906 652.906c-8.86-10.547-19.406-19.828-30.797-27.843 12.235-35.438 18.985-73.407 18.985-113.063 0-190.688-154.407-345.094-345.094-345.094S166.906 321.312 166.906 512 321.313 857.094 512 857.094c39.656 0 77.625-6.75 113.062-18.985 8.016 11.391 17.297 21.938 27.844 30.797-43.453 17.297-91.125 26.578-140.906 26.578-211.781 0-383.484-171.703-383.484-383.484S300.219 128.516 512 128.516 895.484 300.219 895.484 512c0 49.781-9.28 97.031-26.578 140.906z m-117.281-16.453c63.703 0 115.172 51.469 115.172 115.172 0 63.703-51.469 115.172-115.172 115.172-63.703 0-115.172-51.469-115.172-115.172 0-63.281 51.89-115.172 115.172-115.172z m14.344 177.61v-19.407c0-2.531-2.11-4.64-4.64-4.64h-18.985c-2.532 0-4.64 2.109-4.64 4.64v18.985c0 2.53 2.109 4.64 4.64 4.64h18.984c2.531 0.422 4.64-1.687 4.64-4.219z m4.64-124.454c0-2.953-2.109-5.062-4.64-5.062H737.28c-2.531 0-4.64 2.531-4.64 5.062l4.218 81.422c0 2.532 2.11 4.64 4.641 4.64h19.828c2.531 0 4.64-2.109 4.64-4.64l4.641-81.422zM531.406 267.312l14.344 268.735-130.781 112.219c-2.11 1.687-4.64 1.687-6.328-0.422l-27.422-27.422c-1.688-1.688-1.688-4.64-0.422-6.75l97.453-111.375 14.344-234.985c0-2.53 2.11-4.64 4.64-4.64h29.11c2.953 0 5.062 2.11 5.062 4.64z" p-id="6853" fill="#f4ea2a"></path></svg>