<?xml version="1.0" standalone="no"?><!DOCTYPE svg PUBLIC "-//W3C//DTD SVG 1.1//EN" "http://www.w3.org/Graphics/SVG/1.1/DTD/svg11.dtd"><svg t="1661065988819" class="icon" viewBox="0 0 1024 1024" version="1.1" xmlns="http://www.w3.org/2000/svg" p-id="3948" xmlns:xlink="http://www.w3.org/1999/xlink" width="200" height="200"><defs><style type="text/css">@font-face { font-family: feedback-iconfont; src: url("//at.alicdn.com/t/font_1031158_u69w8yhxdu.woff2?t=1630033759944") format("woff2"), url("//at.alicdn.com/t/font_1031158_u69w8yhxdu.woff?t=1630033759944") format("woff"), url("//at.alicdn.com/t/font_1031158_u69w8yhxdu.ttf?t=1630033759944") format("truetype"); }
</style></defs><path d="M535.893333 972.288c-244.736 0-443.733333-198.997333-443.733333-443.733333s198.997333-443.733333 443.733333-443.733334 443.733333 198.997333 443.733334 443.733334-199.168 443.733333-443.733334 443.733333z m0-819.2c-207.018667 0-375.466667 168.448-375.466666 375.466667s168.448 375.466667 375.466666 375.466666 375.466667-168.448 375.466667-375.466666-168.448-375.466667-375.466667-375.466667z" p-id="3949" fill="#f4ea2a"></path><path d="M535.893333 562.688c-18.773333 0-34.133333-15.36-34.133333-34.133333V319.146667c0-18.773333 15.36-34.133333 34.133333-34.133334s34.133333 15.36 34.133334 34.133334v209.237333c0 18.944-15.36 34.304-34.133334 34.304z" p-id="3950" fill="#f4ea2a"></path><path d="M535.893333 670.208m-51.712 0a51.712 51.712 0 1 0 103.424 0 51.712 51.712 0 1 0-103.424 0Z" p-id="3951" fill="#f4ea2a"></path></svg>